<?xml version="1.0" standalone="no"?>
<!DOCTYPE svg PUBLIC "-//W3C//DTD SVG 20010904//EN"
 "http://www.w3.org/TR/2001/REC-SVG-20010904/DTD/svg10.dtd">
<svg version="1.0" xmlns="http://www.w3.org/2000/svg"
 width="512.000000pt" height="512.000000pt" viewBox="0 0 512.000000 512.000000"
 preserveAspectRatio="xMidYMid meet">
<metadata>
Created by potrace 1.14, written by Peter Selinger 2001-2017
</metadata>
<g transform="translate(0.000000,512.000000) scale(0.100000,-0.100000)"
fill="#000000" stroke="none">
<path d="M0 2560 l0 -2560 2560 0 2560 0 0 2560 0 2560 -2560 0 -2560 0 0
-2560z m1713 2363 c53 -37 87 -102 87 -166 0 -59 -38 -158 -152 -396 -99 -207
-102 -215 -127 -276 -152 -385 -255 -734 -330 -1125 -32 -168 -81 -415 -113
-575 -11 -55 -36 -170 -55 -255 -75 -333 -175 -830 -193 -955 -6 -44 -10 -111
-8 -150 l3 -69 37 -9 c22 -5 246 -4 540 2 517 11 595 17 816 65 40 9 88 16
105 16 80 -1 165 -73 187 -158 25 -101 -38 -209 -140 -240 -62 -18 -182 -41
-330 -62 -120 -17 -232 -23 -658 -31 -456 -9 -521 -9 -590 6 -163 33 -280 117
-342 242 -30 63 -33 77 -38 188 -3 81 1 159 13 240 23 166 100 551 204 1020
33 149 63 288 66 310 4 22 19 103 35 180 16 77 43 217 61 310 96 509 265 1037
461 1445 96 198 144 306 153 341 10 40 64 99 109 121 59 27 145 19 199 -19z
m2633 -584 c93 -48 138 -162 101 -251 -15 -35 -15 -37 4 -43 32 -10 88 -65
109 -104 10 -20 30 -72 46 -116 27 -78 27 -86 30 -336 3 -269 6 -296 69 -599
53 -260 58 -308 52 -570 -4 -193 -9 -264 -25 -335 -53 -245 -173 -490 -309
-636 l-34 -35 45 -110 c94 -235 169 -379 247 -483 69 -90 83 -147 57 -222 -52
-153 -235 -186 -349 -63 -83 90 -186 267 -269 464 -30 69 -55 127 -56 129 -2
2 -37 -18 -77 -46 -105 -71 -257 -146 -367 -182 -80 -26 -111 -31 -192 -31
-124 0 -186 13 -273 58 -83 43 -190 146 -252 242 -61 94 -120 251 -151 398
-26 123 -26 137 -27 482 0 354 6 449 42 650 30 175 96 375 181 550 177 367
581 899 812 1070 79 58 174 107 255 132 92 27 266 21 331 -13z"/>
<path d="M4130 3961 c-106 -33 -242 -151 -390 -343 -311 -401 -459 -663 -542
-958 -48 -173 -68 -380 -68 -722 0 -230 3 -282 21 -375 33 -173 84 -281 165
-352 36 -32 39 -33 114 -29 68 3 88 9 171 50 97 48 227 131 311 198 4 3 -20
91 -53 195 -65 205 -79 281 -59 339 48 146 242 183 345 65 22 -25 39 -64 59
-138 l29 -104 17 34 c29 55 77 208 91 289 8 45 13 149 13 260 0 185 0 186 -59
485 l-58 300 -6 270 c-6 253 -8 273 -29 320 -31 68 -37 121 -19 173 8 23 11
42 7 42 -5 0 -14 2 -22 4 -7 2 -24 1 -38 -3z"/>
</g>
</svg>
